<?xml version="1.0" encoding="UTF-8"?>
<svg width="40px" height="55px" viewBox="0 0 40 55" version="1.1" xmlns="http://www.w3.org/2000/svg" xmlns:xlink="http://www.w3.org/1999/xlink">
    <!-- Generator: sketchtool 59.1 (101010) - https://sketch.com -->
    <title>3E43BFF9-64E7-41F7-8BF8-207CF74B4CBA</title>
    <desc>Created with sketchtool.</desc>
    <g id="Page-1" stroke="none" stroke-width="1" fill="none" fill-rule="evenodd" stroke-linecap="round" stroke-linejoin="round">
        <g id="CircleK_Front" transform="translate(-624.000000, -857.000000)" stroke="#DE2300" stroke-width="2">
            <g id="Circle.dk_Front_Revised" transform="translate(-1.000000, 0.000000)">
                <g id="Fuel_prizes_Band" transform="translate(1.000000, 657.000000)">
                    <g id="Service_band">
                        <g id="Icons" transform="translate(258.000000, 159.000000)">
                            <g id="Fuel-price-Copy" transform="translate(274.000000, 0.000000)">
                                <g id="Fuel-price">
                                    <g id="Icon/01_Miles" transform="translate(72.000000, 29.000000)">
                                        <g id="phone-charging-3" transform="translate(21.000000, 13.000000)">
                                            <line x1="0" y1="6.5" x2="38" y2="6.5" id="Path"></line>
                                            <line x1="0" y1="44.5" x2="38" y2="44.5" id="Path"></line>
                                            <path d="M33.4761905,53 L4.52380952,53 C2.02537851,53 0,51.022591 0,48.5833333 L0,4.41666667 C0,1.97740902 2.02537851,0 4.52380952,0 L33.4761905,0 C34.6759794,0 35.826628,0.465326045 36.6750069,1.29361172 C37.5233857,2.12189739 38,3.24529384 38,4.41666667 L38,48.5833333 C38,51.022591 35.9746215,53 33.4761905,53 Z" id="Path"></path>
                                        </g>
                                    </g>
                                </g>
                            </g>
                        </g>
                    </g>
                </g>
            </g>
        </g>
    </g>
</svg>