<?xml version="1.0" encoding="UTF-8" standalone="no"?>
<svg
   xmlns:dc="http://purl.org/dc/elements/1.1/"
   xmlns:cc="http://creativecommons.org/ns#"
   xmlns:rdf="http://www.w3.org/1999/02/22-rdf-syntax-ns#"
   xmlns:svg="http://www.w3.org/2000/svg"
   xmlns="http://www.w3.org/2000/svg"
   xmlns:sodipodi="http://sodipodi.sourceforge.net/DTD/sodipodi-0.dtd"
   xmlns:inkscape="http://www.inkscape.org/namespaces/inkscape"
   width="20"
   height="20"
   viewBox="0 0 20 20"
   version="1.1"
   id="svg80"
   sodipodi:docname="apple.svg"
   inkscape:version="0.92.3 (2405546, 2018-03-11)">
  <metadata
     id="metadata86">
    <rdf:RDF>
      <cc:Work
         rdf:about="">
        <dc:format>image/svg+xml</dc:format>
        <dc:type
           rdf:resource="http://purl.org/dc/dcmitype/StillImage" />
        <dc:title></dc:title>
      </cc:Work>
    </rdf:RDF>
  </metadata>
  <defs
     id="defs84" />
  <sodipodi:namedview
     pagecolor="#ffffff"
     bordercolor="#666666"
     borderopacity="1"
     objecttolerance="10"
     gridtolerance="10"
     guidetolerance="10"
     inkscape:pageopacity="0"
     inkscape:pageshadow="2"
     inkscape:window-width="1864"
     inkscape:window-height="1025"
     id="namedview82"
     showgrid="false"
     inkscape:zoom="29.839906"
     inkscape:cx="20.554657"
     inkscape:cy="8.0799278"
     inkscape:window-x="56"
     inkscape:window-y="27"
     inkscape:window-maximized="1"
     inkscape:current-layer="g449" />
  <g
     transform="matrix(0.03704064,0,0,0.03704064,0.55387907,0.45283677)"
     id="g449">
    <path
       inkscape:connector-curvature="0"
       style="fill:#000000"
       d="m 461.852,355.712 c -1.692,-2.616 -4.443,-4.362 -7.531,-4.779 -40.621,-5.306 -69.25,-42.537 -63.944,-83.158 3.748,-28.694 23.84,-52.588 51.465,-61.205 5.61,-1.798 8.701,-7.803 6.903,-13.413 -0.28,-0.873 -0.671,-1.707 -1.164,-2.481 -18.641,-33.642 -51.786,-56.779 -89.792,-62.677 -19.152,0.914 -38.026,4.957 -55.872,11.968 -12.817,5.158 -26.351,8.317 -40.128,9.365 -13.777,-1.048 -27.311,-4.207 -40.128,-9.365 -17.846,-7.011 -36.72,-11.054 -55.872,-11.968 -39.829,0 -117.333,56.469 -117.333,160 0,98.389 71.765,224 128,224 21.457,0.192 42.656,-4.691 61.867,-14.251 7.235,-3.99 15.232,-6.404 23.467,-7.083 8.234,0.679 16.232,3.093 23.467,7.083 19.211,9.56 40.41,14.443 61.867,14.251 44.587,0 94.912,-76.544 115.989,-147.477 0.882,-2.979 0.422,-6.197 -1.261,-8.81 z"
       id="path445" />
    <path
       inkscape:connector-curvature="0"
       style="fill:#000000"
       d="M 251.121,128 C 315.893,127.929 368.384,75.439 368.454,10.667 368.454,4.776 363.679,0 357.788,0 293.016,0.071 240.525,52.561 240.455,117.333 240.454,123.224 245.23,128 251.121,128 Z"
       id="path447" />
  </g>
</svg>
