<?xml version="1.0" encoding="UTF-8" standalone="no"?>
<svg
   xmlns:dc="http://purl.org/dc/elements/1.1/"
   xmlns:cc="http://creativecommons.org/ns#"
   xmlns:rdf="http://www.w3.org/1999/02/22-rdf-syntax-ns#"
   xmlns:svg="http://www.w3.org/2000/svg"
   xmlns="http://www.w3.org/2000/svg"
   xmlns:sodipodi="http://sodipodi.sourceforge.net/DTD/sodipodi-0.dtd"
   xmlns:inkscape="http://www.inkscape.org/namespaces/inkscape"
   width="20"
   height="20"
   viewBox="0 0 20 20"
   version="1.1"
   id="svg80"
   sodipodi:docname="android.svg"
   inkscape:version="0.92.3 (2405546, 2018-03-11)">
  <metadata
     id="metadata86">
    <rdf:RDF>
      <cc:Work
         rdf:about="">
        <dc:format>image/svg+xml</dc:format>
        <dc:type
           rdf:resource="http://purl.org/dc/dcmitype/StillImage" />
        <dc:title></dc:title>
      </cc:Work>
    </rdf:RDF>
  </metadata>
  <defs
     id="defs84" />
  <sodipodi:namedview
     pagecolor="#ffffff"
     bordercolor="#666666"
     borderopacity="1"
     objecttolerance="10"
     gridtolerance="10"
     guidetolerance="10"
     inkscape:pageopacity="0"
     inkscape:pageshadow="2"
     inkscape:window-width="1864"
     inkscape:window-height="1025"
     id="namedview82"
     showgrid="false"
     inkscape:zoom="14.919953"
     inkscape:cx="31.738769"
     inkscape:cy="14.975575"
     inkscape:window-x="56"
     inkscape:window-y="27"
     inkscape:window-maximized="1"
     inkscape:current-layer="svg80" />
  <g
     transform="matrix(0.04112824,0,0,0.04182093,0.21721134,0.07940996)"
     id="g285">
    <g
       id="g283">
      <path
         inkscape:connector-curvature="0"
         d="m 65.947,153.884 c -8.183,0 -15.136,2.853 -20.844,8.566 -5.708,5.711 -8.564,12.562 -8.564,20.555 v 122.772 c 0,8.179 2.855,15.126 8.564,20.837 5.708,5.712 12.657,8.562 20.841,8.562 8.186,0 15.085,-2.851 20.699,-8.562 5.618,-5.711 8.425,-12.658 8.425,-20.837 V 183.005 c 0,-7.996 -2.857,-14.847 -8.565,-20.555 -5.709,-5.71 -12.564,-8.566 -20.556,-8.566 z"
         id="path275" />
      <path
         inkscape:connector-curvature="0"
         d="m 106.494,349.457 c 0,8.754 3.046,16.177 9.136,22.269 6.091,6.085 13.512,9.13 22.27,9.13 h 21.128 l 0.288,64.81 c 0,8.186 2.855,15.129 8.564,20.841 5.708,5.711 12.562,8.565 20.555,8.565 8.188,0 15.133,-2.854 20.844,-8.565 5.711,-5.712 8.564,-12.655 8.564,-20.841 v -64.81 h 39.397 v 64.81 c 0,8.186 2.854,15.129 8.562,20.841 5.715,5.711 12.662,8.565 20.848,8.565 8.179,0 15.126,-2.854 20.834,-8.565 5.708,-5.712 8.559,-12.655 8.559,-20.841 v -64.81 h 21.416 c 8.56,0 15.89,-3.039 21.98,-9.13 6.092,-6.092 9.138,-13.515 9.138,-22.269 V 159.308 H 106.494 Z"
         id="path277" />
      <path
         inkscape:connector-curvature="0"
         d="M 302.345,43.682 322.61,6.279 c 1.335,-2.474 0.855,-4.377 -1.424,-5.708 -2.478,-1.143 -4.38,-0.572 -5.708,1.714 l -20.56,37.685 c -18.082,-7.994 -37.205,-11.991 -57.384,-11.991 -20.174,0 -39.304,3.997 -57.387,11.991 L 159.591,2.286 C 158.263,0 156.357,-0.571 153.883,0.572 c -2.285,1.331 -2.758,3.234 -1.426,5.708 l 20.271,37.402 c -20.559,10.467 -36.923,25.076 -49.108,43.824 -12.181,18.749 -18.273,39.259 -18.273,61.525 h 264.095 c 0,-22.266 -6.091,-42.777 -18.273,-61.525 C 338.982,68.758 322.717,54.148 302.345,43.682 Z M 185.144,98.068 c -2.187,2.19 -4.803,3.284 -7.849,3.284 -3.046,0 -5.614,-1.093 -7.71,-3.284 -2.091,-2.187 -3.14,-4.805 -3.14,-7.85 0,-3.046 1.049,-5.664 3.14,-7.854 2.093,-2.19 4.665,-3.282 7.71,-3.282 3.042,0 5.659,1.091 7.849,3.282 2.19,2.19 3.284,4.808 3.284,7.854 0,3.046 -1.094,5.66 -3.284,7.85 z m 120.345,0 c -2.098,2.19 -4.668,3.284 -7.713,3.284 -3.046,0 -5.657,-1.093 -7.848,-3.284 -2.19,-2.187 -3.281,-4.805 -3.281,-7.85 0,-3.046 1.091,-5.664 3.281,-7.854 2.19,-2.19 4.802,-3.282 7.848,-3.282 3.045,0 5.615,1.091 7.713,3.282 2.088,2.19 3.139,4.808 3.139,7.854 0,3.046 -1.048,5.66 -3.139,7.85 z"
         id="path279" />
      <path
         inkscape:connector-curvature="0"
         d="m 429.964,162.306 c -5.708,-5.614 -12.655,-8.422 -20.841,-8.422 -7.991,0 -14.843,2.808 -20.551,8.422 -5.711,5.616 -8.568,12.517 -8.568,20.699 v 122.772 c 0,8.179 2.857,15.126 8.568,20.837 5.708,5.712 12.56,8.562 20.551,8.562 8.186,0 15.133,-2.851 20.841,-8.562 5.715,-5.711 8.568,-12.658 8.568,-20.837 V 183.005 c 0,-8.183 -2.853,-15.084 -8.568,-20.699 z"
         id="path281" />
    </g>
  </g>
</svg>
