<?xml version="1.0" encoding="UTF-8"?>
<svg width="44px" height="51px" viewBox="0 0 44 51" version="1.1" xmlns="http://www.w3.org/2000/svg" xmlns:xlink="http://www.w3.org/1999/xlink">
    <!-- Generator: sketchtool 59.1 (101010) - https://sketch.com -->
    <title>B7832913-C5A8-41A7-BA2D-C64E5CBF4117</title>
    <desc>Created with sketchtool.</desc>
    <g id="Page-1" stroke="none" stroke-width="1" fill="none" fill-rule="evenodd">
        <g id="CircleK_Front" transform="translate(-896.000000, -860.000000)">
            <g id="Circle.dk_Front_Revised" transform="translate(-1.000000, 0.000000)">
                <g id="Fuel_prizes_Band" transform="translate(1.000000, 657.000000)">
                    <g id="Service_band">
                        <g id="Icons" transform="translate(258.000000, 159.000000)">
                            <g id="Fuel-price-Copy-2" transform="translate(548.000000, 0.000000)">
                                <g id="Fuel-price">
                                    <g id="Icon/01_Miles" transform="translate(72.000000, 29.000000)">
                                        <g id="Icon/32/EVFuel" transform="translate(19.000000, 16.000000)">
                                            <path d="M14.9049759,35.1250451 C14.7290203,35.1250451 14.549003,35.1491345 14.3782464,35.1151904 C14.2459954,35.0890936 14.0640284,35.0232129 14.0164245,34.9135333 C13.9701204,34.8065912 14.0286098,34.5888746 14.1061082,34.4764576 C14.5036737,33.8999556 14.9215479,33.3411556 15.3338982,32.7776108 C17.1636415,30.2768807 18.9941972,27.776698 20.8242655,25.2763328 C20.8671578,25.2175694 20.8983521,25.1244969 20.9521298,25.1038749 C21.0934792,25.0496739 21.2611488,24.9680986 21.3851139,25.0129924 C21.4582256,25.0396367 21.525326,25.3027946 21.4957563,25.4307236 C21.3981115,25.8553897 21.257412,26.2678286 21.1298726,26.6835524 C20.6107792,28.3738219 20.0905485,30.0635439 19.5535833,31.8089269 C19.7342506,31.8178692 19.8743002,31.8308263 20.0145123,31.8310088 C21.1784513,31.8326513 22.3425528,31.8235265 23.5063294,31.8412285 C23.673999,31.843966 23.9230664,31.9240813 23.9828555,32.0554778 C24.0400451,32.1813994 23.94435,32.4609818 23.8403688,32.604058 C21.6146848,35.6635881 19.3808771,38.7160009 17.1353717,41.757464 C17.0323653,41.8968903 16.8063688,41.9218921 16.6377244,42 C16.6073424,41.7970655 16.5059607,41.5671217 16.5574639,41.3950288 C17.1249735,39.4972624 17.7165288,37.6084382 18.300448,35.7168767 C18.352601,35.5475212 18.3963056,35.3750634 18.465843,35.1250451 C17.2294421,35.1250451 16.0671278,35.1250451 14.9049759,35.1250451 Z" id="Fill-9" fill="#DA291C"></path>
                                            <g id="Group-2" stroke="#DA291C" stroke-linecap="round" stroke-linejoin="round" stroke-width="2">
                                                <rect id="Rectangle" x="5.14705882" y="1.0658141e-14" width="26.7647059" height="48.1623932"></rect>
                                                <line x1="0" y1="48.1623932" x2="37.0588235" y2="48.1623932" id="Path-2"></line>
                                                <rect id="Rectangle" x="37.0588235" y="13.6111111" width="4.11764706" height="6.28205128"></rect>
                                                <line x1="5.14705882" y1="18.8461538" x2="31.9117647" y2="18.8461538" id="Path-2"></line>
                                                <path d="M31.9117647,40.82925 C33.2965036,40.82925 33.9827781,40.82925 33.9705882,40.82925 C37.4019608,40.82925 39.1176471,39.0855969 39.1176471,35.5982906 L39.1176471,23.034188" id="Path-3"></path>
                                                <path d="M39.1176471,12.5641026 C39.1176471,9.75043727 38.0882353,8.34360462 36.0294118,8.34360462" id="Path-4"></path>
                                            </g>
                                        </g>
                                    </g>
                                </g>
                            </g>
                        </g>
                    </g>
                </g>
            </g>
        </g>
    </g>
</svg>